<svg xmlns="http://www.w3.org/2000/svg" version="1.1" xmlns:xlink="http://www.w3.org/1999/xlink" xmlns:svgjs="http://svgjs.dev/svgjs" width="1444" height="566" preserveAspectRatio="none" viewBox="0 0 1444 566">
    <g mask="url(&quot;#SvgjsMask1266&quot;)" fill="none">
        <g mask="url(&quot;#SvgjsMask1267&quot;)">
            <path d="M662.5 387.5L637.5 362.5L637.5 337.5L662.5 312.5M712.5 512.5L737.5 487.5M712.5 462.5L712.5 437.5L712.5 412.5L712.5 387.5L712.5 362.5M712.5 587.5L712.5 562.5L712.5 537.5L712.5 512.5L712.5 487.5L712.5 462.5L687.5 437.5L662.5 412.5L662.5 387.5L662.5 362.5" stroke="rgba(98, 210, 255, 1)" stroke-width="4.17"></path>
            <path d="M656.25 362.5 a6.25 6.25 0 1 0 12.5 0 a6.25 6.25 0 1 0 -12.5 0zM656.25 312.5 a6.25 6.25 0 1 0 12.5 0 a6.25 6.25 0 1 0 -12.5 0zM731.25 487.5 a6.25 6.25 0 1 0 12.5 0 a6.25 6.25 0 1 0 -12.5 0zM706.25 362.5 a6.25 6.25 0 1 0 12.5 0 a6.25 6.25 0 1 0 -12.5 0z" fill="rgba(98, 210, 255, 1)"></path>
            <path d="M737.5 562.5L737.5 537.5L737.5 512.5M762.5 237.5L762.5 212.5L762.5 187.5L762.5 162.5M762.5 462.5L737.5 437.5L737.5 412.5L737.5 387.5M787.5 312.5L762.5 287.5L762.5 262.5M737.5 587.5L737.5 562.5L762.5 537.5L762.5 512.5L762.5 487.5L762.5 462.5L762.5 437.5L787.5 412.5L787.5 387.5L787.5 362.5L787.5 337.5L787.5 312.5L787.5 287.5L787.5 262.5L762.5 237.5L737.5 212.5L737.5 187.5L737.5 162.5L737.5 137.5" stroke="rgba(98, 210, 255, 1)" stroke-width="4.17"></path>
            <path d="M731.25 137.5 a6.25 6.25 0 1 0 12.5 0 a6.25 6.25 0 1 0 -12.5 0zM731.25 512.5 a6.25 6.25 0 1 0 12.5 0 a6.25 6.25 0 1 0 -12.5 0zM756.25 162.5 a6.25 6.25 0 1 0 12.5 0 a6.25 6.25 0 1 0 -12.5 0zM731.25 387.5 a6.25 6.25 0 1 0 12.5 0 a6.25 6.25 0 1 0 -12.5 0zM756.25 262.5 a6.25 6.25 0 1 0 12.5 0 a6.25 6.25 0 1 0 -12.5 0z" fill="rgba(98, 210, 255, 1)"></path>
            <path d="M687.5 587.5L687.5 562.5L687.5 537.5L687.5 512.5L687.5 487.5" stroke="rgba(0, 182, 255, 1)" stroke-width="4.17"></path>
            <path d="M681.25 487.5 a6.25 6.25 0 1 0 12.5 0 a6.25 6.25 0 1 0 -12.5 0z" fill="rgba(0, 182, 255, 1)"></path>
            <path d="M787.5 462.5L812.5 437.5M787.5 487.5L812.5 462.5M762.5 587.5L762.5 562.5L787.5 537.5L787.5 512.5L787.5 487.5L787.5 462.5L787.5 437.5L812.5 412.5L812.5 387.5L812.5 362.5L812.5 337.5" stroke="rgba(98, 210, 255, 1)" stroke-width="4.17"></path>
            <path d="M806.25 337.5 a6.25 6.25 0 1 0 12.5 0 a6.25 6.25 0 1 0 -12.5 0zM806.25 437.5 a6.25 6.25 0 1 0 12.5 0 a6.25 6.25 0 1 0 -12.5 0zM806.25 462.5 a6.25 6.25 0 1 0 12.5 0 a6.25 6.25 0 1 0 -12.5 0z" fill="rgba(98, 210, 255, 1)"></path>
            <path d="M662.5 587.5L662.5 562.5L662.5 537.5L662.5 512.5" stroke="rgba(98, 210, 255, 1)" stroke-width="4.17"></path>
            <path d="M656.25 512.5 a6.25 6.25 0 1 0 12.5 0 a6.25 6.25 0 1 0 -12.5 0z" fill="rgba(98, 210, 255, 1)"></path>
            <path d="M787.5 587.5L787.5 562.5L812.5 537.5L812.5 512.5" stroke="rgba(98, 210, 255, 1)" stroke-width="4.17"></path>
            <path d="M806.25 512.5 a6.25 6.25 0 1 0 12.5 0 a6.25 6.25 0 1 0 -12.5 0z" fill="rgba(98, 210, 255, 1)"></path>
            <path d="M637.5 587.5L637.5 562.5L637.5 537.5" stroke="rgba(0, 182, 255, 1)" stroke-width="4.17"></path>
            <path d="M631.25 537.5 a6.25 6.25 0 1 0 12.5 0 a6.25 6.25 0 1 0 -12.5 0z" fill="rgba(0, 182, 255, 1)"></path>
            <path d="M837.5 312.5L812.5 287.5L812.5 262.5L837.5 237.5L837.5 212.5M812.5 587.5L812.5 562.5L837.5 537.5L837.5 512.5L837.5 487.5L837.5 462.5L837.5 437.5L837.5 412.5L837.5 387.5L837.5 362.5L837.5 337.5L837.5 312.5L837.5 287.5" stroke="rgba(98, 210, 255, 1)" stroke-width="4.17"></path>
            <path d="M831.25 287.5 a6.25 6.25 0 1 0 12.5 0 a6.25 6.25 0 1 0 -12.5 0zM831.25 212.5 a6.25 6.25 0 1 0 12.5 0 a6.25 6.25 0 1 0 -12.5 0z" fill="rgba(98, 210, 255, 1)"></path>
            <path d="M612.5 337.5L612.5 312.5L587.5 287.5L587.5 262.5M612.5 487.5L612.5 462.5L637.5 437.5L637.5 412.5M587.5 437.5L562.5 412.5L562.5 387.5M612.5 587.5L612.5 562.5L612.5 537.5L612.5 512.5L612.5 487.5L587.5 462.5L587.5 437.5L587.5 412.5L587.5 387.5L612.5 362.5L612.5 337.5L637.5 312.5" stroke="rgba(0, 182, 255, 1)" stroke-width="4.17"></path>
            <path d="M631.25 312.5 a6.25 6.25 0 1 0 12.5 0 a6.25 6.25 0 1 0 -12.5 0zM581.25 262.5 a6.25 6.25 0 1 0 12.5 0 a6.25 6.25 0 1 0 -12.5 0zM631.25 412.5 a6.25 6.25 0 1 0 12.5 0 a6.25 6.25 0 1 0 -12.5 0zM556.25 387.5 a6.25 6.25 0 1 0 12.5 0 a6.25 6.25 0 1 0 -12.5 0z" fill="rgba(0, 182, 255, 1)"></path>
            <path d="M862.5 362.5L887.5 337.5L912.5 312.5M862.5 387.5L887.5 362.5L912.5 337.5M887.5 237.5L912.5 212.5L912.5 187.5L912.5 162.5M887.5 187.5L862.5 162.5M837.5 587.5L837.5 562.5L862.5 537.5L862.5 512.5L862.5 487.5L862.5 462.5L862.5 437.5L862.5 412.5L862.5 387.5L862.5 362.5L862.5 337.5L887.5 312.5L887.5 287.5L887.5 262.5L887.5 237.5L887.5 212.5L887.5 187.5L887.5 162.5L887.5 137.5" stroke="rgba(0, 182, 255, 1)" stroke-width="4.17"></path>
            <path d="M881.25 137.5 a6.25 6.25 0 1 0 12.5 0 a6.25 6.25 0 1 0 -12.5 0zM906.25 312.5 a6.25 6.25 0 1 0 12.5 0 a6.25 6.25 0 1 0 -12.5 0zM906.25 337.5 a6.25 6.25 0 1 0 12.5 0 a6.25 6.25 0 1 0 -12.5 0zM906.25 162.5 a6.25 6.25 0 1 0 12.5 0 a6.25 6.25 0 1 0 -12.5 0zM856.25 162.5 a6.25 6.25 0 1 0 12.5 0 a6.25 6.25 0 1 0 -12.5 0z" fill="rgba(0, 182, 255, 1)"></path>
            <path d="M587.5 587.5L587.5 562.5L587.5 537.5L587.5 512.5L587.5 487.5L562.5 462.5" stroke="rgba(0, 182, 255, 1)" stroke-width="4.17"></path>
            <path d="M556.25 462.5 a6.25 6.25 0 1 0 12.5 0 a6.25 6.25 0 1 0 -12.5 0z" fill="rgba(0, 182, 255, 1)"></path>
            <path d="M887.5 487.5L912.5 462.5L912.5 437.5L912.5 412.5M862.5 587.5L862.5 562.5L887.5 537.5L887.5 512.5L887.5 487.5L887.5 462.5L887.5 437.5L887.5 412.5" stroke="rgba(0, 182, 255, 1)" stroke-width="4.17"></path>
            <path d="M881.25 412.5 a6.25 6.25 0 1 0 12.5 0 a6.25 6.25 0 1 0 -12.5 0zM906.25 412.5 a6.25 6.25 0 1 0 12.5 0 a6.25 6.25 0 1 0 -12.5 0z" fill="rgba(0, 182, 255, 1)"></path>
            <path d="M512.5 337.5L537.5 312.5M512.5 287.5L487.5 262.5M512.5 237.5L512.5 212.5L512.5 187.5L512.5 162.5L512.5 137.5M487.5 137.5L462.5 112.5L462.5 87.5M487.5 162.5L462.5 137.5L437.5 112.5L437.5 87.5M562.5 587.5L562.5 562.5L562.5 537.5L562.5 512.5L562.5 487.5L537.5 462.5L537.5 437.5L537.5 412.5L537.5 387.5L537.5 362.5L512.5 337.5L512.5 312.5L512.5 287.5L512.5 262.5L512.5 237.5L487.5 212.5L487.5 187.5L487.5 162.5L487.5 137.5L487.5 112.5L487.5 87.5L487.5 62.5" stroke="rgba(98, 210, 255, 1)" stroke-width="4.17"></path>
            <path d="M481.25 62.5 a6.25 6.25 0 1 0 12.5 0 a6.25 6.25 0 1 0 -12.5 0zM531.25 312.5 a6.25 6.25 0 1 0 12.5 0 a6.25 6.25 0 1 0 -12.5 0zM481.25 262.5 a6.25 6.25 0 1 0 12.5 0 a6.25 6.25 0 1 0 -12.5 0zM506.25 137.5 a6.25 6.25 0 1 0 12.5 0 a6.25 6.25 0 1 0 -12.5 0zM456.25 87.5 a6.25 6.25 0 1 0 12.5 0 a6.25 6.25 0 1 0 -12.5 0zM431.25 87.5 a6.25 6.25 0 1 0 12.5 0 a6.25 6.25 0 1 0 -12.5 0z" fill="rgba(98, 210, 255, 1)"></path>
            <path d="M887.5 587.5L887.5 562.5L912.5 537.5L912.5 512.5" stroke="rgba(0, 182, 255, 1)" stroke-width="4.17"></path>
            <path d="M906.25 512.5 a6.25 6.25 0 1 0 12.5 0 a6.25 6.25 0 1 0 -12.5 0z" fill="rgba(0, 182, 255, 1)"></path>
            <path d="M512.5 437.5L487.5 412.5M537.5 587.5L537.5 562.5L537.5 537.5L537.5 512.5L537.5 487.5L512.5 462.5L512.5 437.5L512.5 412.5L512.5 387.5L512.5 362.5L487.5 337.5L487.5 312.5" stroke="rgba(0, 182, 255, 1)" stroke-width="4.17"></path>
            <path d="M481.25 312.5 a6.25 6.25 0 1 0 12.5 0 a6.25 6.25 0 1 0 -12.5 0zM481.25 412.5 a6.25 6.25 0 1 0 12.5 0 a6.25 6.25 0 1 0 -12.5 0z" fill="rgba(0, 182, 255, 1)"></path>
            <path d="M962.5 237.5L937.5 212.5L937.5 187.5L937.5 162.5L937.5 137.5M937.5 312.5L937.5 287.5M962.5 137.5L987.5 112.5L987.5 87.5L987.5 62.5M962.5 212.5L987.5 187.5M962.5 162.5L987.5 137.5M912.5 587.5L937.5 562.5L937.5 537.5L937.5 512.5L937.5 487.5L937.5 462.5L937.5 437.5L937.5 412.5L937.5 387.5L937.5 362.5L937.5 337.5L937.5 312.5L962.5 287.5L962.5 262.5L962.5 237.5L962.5 212.5L962.5 187.5L962.5 162.5L962.5 137.5L962.5 112.5L962.5 87.5L962.5 62.5" stroke="rgba(0, 182, 255, 1)" stroke-width="4.17"></path>
            <path d="M956.25 62.5 a6.25 6.25 0 1 0 12.5 0 a6.25 6.25 0 1 0 -12.5 0zM931.25 137.5 a6.25 6.25 0 1 0 12.5 0 a6.25 6.25 0 1 0 -12.5 0zM931.25 287.5 a6.25 6.25 0 1 0 12.5 0 a6.25 6.25 0 1 0 -12.5 0zM981.25 62.5 a6.25 6.25 0 1 0 12.5 0 a6.25 6.25 0 1 0 -12.5 0zM981.25 187.5 a6.25 6.25 0 1 0 12.5 0 a6.25 6.25 0 1 0 -12.5 0zM981.25 137.5 a6.25 6.25 0 1 0 12.5 0 a6.25 6.25 0 1 0 -12.5 0z" fill="rgba(0, 182, 255, 1)"></path>
            <path d="M512.5 587.5L512.5 562.5L512.5 537.5L512.5 512.5L512.5 487.5L487.5 462.5" stroke="rgba(0, 182, 255, 1)" stroke-width="4.17"></path>
            <path d="M481.25 462.5 a6.25 6.25 0 1 0 12.5 0 a6.25 6.25 0 1 0 -12.5 0z" fill="rgba(0, 182, 255, 1)"></path>
            <path d="M487.5 562.5L462.5 537.5L462.5 512.5L462.5 487.5L437.5 462.5L437.5 437.5L437.5 412.5M387.5 137.5L412.5 112.5L412.5 87.5L412.5 62.5M412.5 212.5L412.5 187.5M387.5 162.5L412.5 137.5M462.5 337.5L462.5 312.5L462.5 287.5L462.5 262.5L462.5 237.5M487.5 587.5L487.5 562.5L487.5 537.5L487.5 512.5L487.5 487.5L462.5 462.5L462.5 437.5L462.5 412.5L487.5 387.5L487.5 362.5L462.5 337.5L437.5 312.5L437.5 287.5L412.5 262.5L412.5 237.5L412.5 212.5L387.5 187.5L387.5 162.5L387.5 137.5L387.5 112.5" stroke="rgba(0, 182, 255, 1)" stroke-width="4.17"></path>
            <path d="M381.25 112.5 a6.25 6.25 0 1 0 12.5 0 a6.25 6.25 0 1 0 -12.5 0zM431.25 412.5 a6.25 6.25 0 1 0 12.5 0 a6.25 6.25 0 1 0 -12.5 0zM406.25 62.5 a6.25 6.25 0 1 0 12.5 0 a6.25 6.25 0 1 0 -12.5 0zM406.25 187.5 a6.25 6.25 0 1 0 12.5 0 a6.25 6.25 0 1 0 -12.5 0zM406.25 137.5 a6.25 6.25 0 1 0 12.5 0 a6.25 6.25 0 1 0 -12.5 0zM456.25 237.5 a6.25 6.25 0 1 0 12.5 0 a6.25 6.25 0 1 0 -12.5 0z" fill="rgba(0, 182, 255, 1)"></path>
            <path d="M962.5 587.5L962.5 562.5L962.5 537.5L962.5 512.5L962.5 487.5L962.5 462.5L962.5 437.5L962.5 412.5L962.5 387.5L962.5 362.5L962.5 337.5" stroke="rgba(0, 182, 255, 1)" stroke-width="4.17"></path>
            <path d="M956.25 337.5 a6.25 6.25 0 1 0 12.5 0 a6.25 6.25 0 1 0 -12.5 0z" fill="rgba(0, 182, 255, 1)"></path>
            <path d="M437.5 562.5L437.5 537.5M412.5 312.5L387.5 287.5L362.5 262.5M387.5 237.5L362.5 212.5L337.5 187.5L312.5 162.5L312.5 137.5M412.5 387.5L437.5 362.5M362.5 137.5L337.5 112.5L337.5 87.5L337.5 62.5M462.5 587.5L437.5 562.5L412.5 537.5L412.5 512.5L412.5 487.5L412.5 462.5L412.5 437.5L412.5 412.5L412.5 387.5L412.5 362.5L412.5 337.5L412.5 312.5L412.5 287.5L387.5 262.5L387.5 237.5L387.5 212.5L362.5 187.5L362.5 162.5L362.5 137.5L362.5 112.5" stroke="rgba(98, 210, 255, 1)" stroke-width="4.17"></path>
            <path d="M356.25 112.5 a6.25 6.25 0 1 0 12.5 0 a6.25 6.25 0 1 0 -12.5 0zM431.25 537.5 a6.25 6.25 0 1 0 12.5 0 a6.25 6.25 0 1 0 -12.5 0zM356.25 262.5 a6.25 6.25 0 1 0 12.5 0 a6.25 6.25 0 1 0 -12.5 0zM306.25 137.5 a6.25 6.25 0 1 0 12.5 0 a6.25 6.25 0 1 0 -12.5 0zM431.25 362.5 a6.25 6.25 0 1 0 12.5 0 a6.25 6.25 0 1 0 -12.5 0zM331.25 62.5 a6.25 6.25 0 1 0 12.5 0 a6.25 6.25 0 1 0 -12.5 0z" fill="rgba(98, 210, 255, 1)"></path>
            <path d="M987.5 587.5L987.5 562.5L987.5 537.5L987.5 512.5L987.5 487.5L987.5 462.5L987.5 437.5L987.5 412.5L987.5 387.5L987.5 362.5" stroke="rgba(98, 210, 255, 1)" stroke-width="4.17"></path>
            <path d="M981.25 362.5 a6.25 6.25 0 1 0 12.5 0 a6.25 6.25 0 1 0 -12.5 0z" fill="rgba(98, 210, 255, 1)"></path>
            <path d="M1012.5 587.5L1012.5 562.5L1012.5 537.5L1012.5 512.5L1012.5 487.5L1012.5 462.5L1012.5 437.5L1012.5 412.5" stroke="rgba(0, 182, 255, 1)" stroke-width="4.17"></path>
            <path d="M1006.25 412.5 a6.25 6.25 0 1 0 12.5 0 a6.25 6.25 0 1 0 -12.5 0z" fill="rgba(0, 182, 255, 1)"></path>
            <path d="M1037.5 462.5L1062.5 437.5L1062.5 412.5M1037.5 387.5L1037.5 362.5L1037.5 337.5L1037.5 312.5M1037.5 512.5L1062.5 487.5L1062.5 462.5M1037.5 587.5L1037.5 562.5L1037.5 537.5L1037.5 512.5L1037.5 487.5L1037.5 462.5L1037.5 437.5L1037.5 412.5L1037.5 387.5L1012.5 362.5" stroke="rgba(98, 210, 255, 1)" stroke-width="4.17"></path>
            <path d="M1006.25 362.5 a6.25 6.25 0 1 0 12.5 0 a6.25 6.25 0 1 0 -12.5 0zM1056.25 412.5 a6.25 6.25 0 1 0 12.5 0 a6.25 6.25 0 1 0 -12.5 0zM1031.25 312.5 a6.25 6.25 0 1 0 12.5 0 a6.25 6.25 0 1 0 -12.5 0zM1056.25 462.5 a6.25 6.25 0 1 0 12.5 0 a6.25 6.25 0 1 0 -12.5 0z" fill="rgba(98, 210, 255, 1)"></path>
            <path d="M387.5 587.5L387.5 562.5L387.5 537.5L387.5 512.5L387.5 487.5L387.5 462.5L387.5 437.5L387.5 412.5L387.5 387.5" stroke="rgba(0, 182, 255, 1)" stroke-width="4.17"></path>
            <path d="M381.25 387.5 a6.25 6.25 0 1 0 12.5 0 a6.25 6.25 0 1 0 -12.5 0z" fill="rgba(0, 182, 255, 1)"></path>
            <path d="M1062.5 562.5L1087.5 537.5L1087.5 512.5L1087.5 487.5M1062.5 587.5L1062.5 562.5L1062.5 537.5" stroke="rgba(0, 182, 255, 1)" stroke-width="4.17"></path>
            <path d="M1056.25 537.5 a6.25 6.25 0 1 0 12.5 0 a6.25 6.25 0 1 0 -12.5 0zM1081.25 487.5 a6.25 6.25 0 1 0 12.5 0 a6.25 6.25 0 1 0 -12.5 0z" fill="rgba(0, 182, 255, 1)"></path>
            <path d="M362.5 362.5L337.5 337.5L337.5 312.5M362.5 562.5L337.5 537.5L337.5 512.5L312.5 487.5M362.5 387.5L337.5 362.5L312.5 337.5L312.5 312.5L312.5 287.5M362.5 587.5L362.5 562.5L362.5 537.5L362.5 512.5L362.5 487.5L362.5 462.5L362.5 437.5L362.5 412.5L362.5 387.5L362.5 362.5L362.5 337.5" stroke="rgba(0, 182, 255, 1)" stroke-width="4.17"></path>
            <path d="M356.25 337.5 a6.25 6.25 0 1 0 12.5 0 a6.25 6.25 0 1 0 -12.5 0zM331.25 312.5 a6.25 6.25 0 1 0 12.5 0 a6.25 6.25 0 1 0 -12.5 0zM306.25 487.5 a6.25 6.25 0 1 0 12.5 0 a6.25 6.25 0 1 0 -12.5 0zM306.25 287.5 a6.25 6.25 0 1 0 12.5 0 a6.25 6.25 0 1 0 -12.5 0z" fill="rgba(0, 182, 255, 1)"></path>
        </g>
    </g>
    <defs>
        <mask id="SvgjsMask1266">
            <rect width="1444" height="566" fill="#ffffff"></rect>
        </mask>
        <mask id="SvgjsMask1267">
            <rect width="1444" height="566" fill="white"></rect>
            <path d="M659.37 362.5 a3.13 3.13 0 1 0 6.26 0 a3.13 3.13 0 1 0 -6.26 0zM659.37 312.5 a3.13 3.13 0 1 0 6.26 0 a3.13 3.13 0 1 0 -6.26 0zM734.37 487.5 a3.13 3.13 0 1 0 6.26 0 a3.13 3.13 0 1 0 -6.26 0zM709.37 362.5 a3.13 3.13 0 1 0 6.26 0 a3.13 3.13 0 1 0 -6.26 0z" fill="black"></path>
            <path d="M734.37 137.5 a3.13 3.13 0 1 0 6.26 0 a3.13 3.13 0 1 0 -6.26 0zM734.37 512.5 a3.13 3.13 0 1 0 6.26 0 a3.13 3.13 0 1 0 -6.26 0zM759.37 162.5 a3.13 3.13 0 1 0 6.26 0 a3.13 3.13 0 1 0 -6.26 0zM734.37 387.5 a3.13 3.13 0 1 0 6.26 0 a3.13 3.13 0 1 0 -6.26 0zM759.37 262.5 a3.13 3.13 0 1 0 6.26 0 a3.13 3.13 0 1 0 -6.26 0z" fill="black"></path>
            <path d="M684.37 487.5 a3.13 3.13 0 1 0 6.26 0 a3.13 3.13 0 1 0 -6.26 0z" fill="black"></path>
            <path d="M809.37 337.5 a3.13 3.13 0 1 0 6.26 0 a3.13 3.13 0 1 0 -6.26 0zM809.37 437.5 a3.13 3.13 0 1 0 6.26 0 a3.13 3.13 0 1 0 -6.26 0zM809.37 462.5 a3.13 3.13 0 1 0 6.26 0 a3.13 3.13 0 1 0 -6.26 0z" fill="black"></path>
            <path d="M659.37 512.5 a3.13 3.13 0 1 0 6.26 0 a3.13 3.13 0 1 0 -6.26 0z" fill="black"></path>
            <path d="M809.37 512.5 a3.13 3.13 0 1 0 6.26 0 a3.13 3.13 0 1 0 -6.26 0z" fill="black"></path>
            <path d="M634.37 537.5 a3.13 3.13 0 1 0 6.26 0 a3.13 3.13 0 1 0 -6.26 0z" fill="black"></path>
            <path d="M834.37 287.5 a3.13 3.13 0 1 0 6.26 0 a3.13 3.13 0 1 0 -6.26 0zM834.37 212.5 a3.13 3.13 0 1 0 6.26 0 a3.13 3.13 0 1 0 -6.26 0z" fill="black"></path>
            <path d="M634.37 312.5 a3.13 3.13 0 1 0 6.26 0 a3.13 3.13 0 1 0 -6.26 0zM584.37 262.5 a3.13 3.13 0 1 0 6.26 0 a3.13 3.13 0 1 0 -6.26 0zM634.37 412.5 a3.13 3.13 0 1 0 6.26 0 a3.13 3.13 0 1 0 -6.26 0zM559.37 387.5 a3.13 3.13 0 1 0 6.26 0 a3.13 3.13 0 1 0 -6.26 0z" fill="black"></path>
            <path d="M884.37 137.5 a3.13 3.13 0 1 0 6.26 0 a3.13 3.13 0 1 0 -6.26 0zM909.37 312.5 a3.13 3.13 0 1 0 6.26 0 a3.13 3.13 0 1 0 -6.26 0zM909.37 337.5 a3.13 3.13 0 1 0 6.26 0 a3.13 3.13 0 1 0 -6.26 0zM909.37 162.5 a3.13 3.13 0 1 0 6.26 0 a3.13 3.13 0 1 0 -6.26 0zM859.37 162.5 a3.13 3.13 0 1 0 6.26 0 a3.13 3.13 0 1 0 -6.26 0z" fill="black"></path>
            <path d="M559.37 462.5 a3.13 3.13 0 1 0 6.26 0 a3.13 3.13 0 1 0 -6.26 0z" fill="black"></path>
            <path d="M884.37 412.5 a3.13 3.13 0 1 0 6.26 0 a3.13 3.13 0 1 0 -6.26 0zM909.37 412.5 a3.13 3.13 0 1 0 6.26 0 a3.13 3.13 0 1 0 -6.26 0z" fill="black"></path>
            <path d="M484.37 62.5 a3.13 3.13 0 1 0 6.26 0 a3.13 3.13 0 1 0 -6.26 0zM534.37 312.5 a3.13 3.13 0 1 0 6.26 0 a3.13 3.13 0 1 0 -6.26 0zM484.37 262.5 a3.13 3.13 0 1 0 6.26 0 a3.13 3.13 0 1 0 -6.26 0zM509.37 137.5 a3.13 3.13 0 1 0 6.26 0 a3.13 3.13 0 1 0 -6.26 0zM459.37 87.5 a3.13 3.13 0 1 0 6.26 0 a3.13 3.13 0 1 0 -6.26 0zM434.37 87.5 a3.13 3.13 0 1 0 6.26 0 a3.13 3.13 0 1 0 -6.26 0z" fill="black"></path>
            <path d="M909.37 512.5 a3.13 3.13 0 1 0 6.26 0 a3.13 3.13 0 1 0 -6.26 0z" fill="black"></path>
            <path d="M484.37 312.5 a3.13 3.13 0 1 0 6.26 0 a3.13 3.13 0 1 0 -6.26 0zM484.37 412.5 a3.13 3.13 0 1 0 6.26 0 a3.13 3.13 0 1 0 -6.26 0z" fill="black"></path>
            <path d="M959.37 62.5 a3.13 3.13 0 1 0 6.26 0 a3.13 3.13 0 1 0 -6.26 0zM934.37 137.5 a3.13 3.13 0 1 0 6.26 0 a3.13 3.13 0 1 0 -6.26 0zM934.37 287.5 a3.13 3.13 0 1 0 6.26 0 a3.13 3.13 0 1 0 -6.26 0zM984.37 62.5 a3.13 3.13 0 1 0 6.26 0 a3.13 3.13 0 1 0 -6.26 0zM984.37 187.5 a3.13 3.13 0 1 0 6.26 0 a3.13 3.13 0 1 0 -6.26 0zM984.37 137.5 a3.13 3.13 0 1 0 6.26 0 a3.13 3.13 0 1 0 -6.26 0z" fill="black"></path>
            <path d="M484.37 462.5 a3.13 3.13 0 1 0 6.26 0 a3.13 3.13 0 1 0 -6.26 0z" fill="black"></path>
            <path d="M384.37 112.5 a3.13 3.13 0 1 0 6.26 0 a3.13 3.13 0 1 0 -6.26 0zM434.37 412.5 a3.13 3.13 0 1 0 6.26 0 a3.13 3.13 0 1 0 -6.26 0zM409.37 62.5 a3.13 3.13 0 1 0 6.26 0 a3.13 3.13 0 1 0 -6.26 0zM409.37 187.5 a3.13 3.13 0 1 0 6.26 0 a3.13 3.13 0 1 0 -6.26 0zM409.37 137.5 a3.13 3.13 0 1 0 6.26 0 a3.13 3.13 0 1 0 -6.26 0zM459.37 237.5 a3.13 3.13 0 1 0 6.26 0 a3.13 3.13 0 1 0 -6.26 0z" fill="black"></path>
            <path d="M959.37 337.5 a3.13 3.13 0 1 0 6.26 0 a3.13 3.13 0 1 0 -6.26 0z" fill="black"></path>
            <path d="M359.37 112.5 a3.13 3.13 0 1 0 6.26 0 a3.13 3.13 0 1 0 -6.26 0zM434.37 537.5 a3.13 3.13 0 1 0 6.26 0 a3.13 3.13 0 1 0 -6.26 0zM359.37 262.5 a3.13 3.13 0 1 0 6.26 0 a3.13 3.13 0 1 0 -6.26 0zM309.37 137.5 a3.13 3.13 0 1 0 6.26 0 a3.13 3.13 0 1 0 -6.26 0zM434.37 362.5 a3.13 3.13 0 1 0 6.26 0 a3.13 3.13 0 1 0 -6.26 0zM334.37 62.5 a3.13 3.13 0 1 0 6.26 0 a3.13 3.13 0 1 0 -6.26 0z" fill="black"></path>
            <path d="M984.37 362.5 a3.13 3.13 0 1 0 6.26 0 a3.13 3.13 0 1 0 -6.26 0z" fill="black"></path>
            <path d="M1009.37 412.5 a3.13 3.13 0 1 0 6.26 0 a3.13 3.13 0 1 0 -6.26 0z" fill="black"></path>
            <path d="M1009.37 362.5 a3.13 3.13 0 1 0 6.26 0 a3.13 3.13 0 1 0 -6.26 0zM1059.37 412.5 a3.13 3.13 0 1 0 6.26 0 a3.13 3.13 0 1 0 -6.26 0zM1034.37 312.5 a3.13 3.13 0 1 0 6.26 0 a3.13 3.13 0 1 0 -6.26 0zM1059.37 462.5 a3.13 3.13 0 1 0 6.26 0 a3.13 3.13 0 1 0 -6.26 0z" fill="black"></path>
            <path d="M384.37 387.5 a3.13 3.13 0 1 0 6.26 0 a3.13 3.13 0 1 0 -6.26 0z" fill="black"></path>
            <path d="M1059.37 537.5 a3.13 3.13 0 1 0 6.26 0 a3.13 3.13 0 1 0 -6.26 0zM1084.37 487.5 a3.13 3.13 0 1 0 6.26 0 a3.13 3.13 0 1 0 -6.26 0z" fill="black"></path>
            <path d="M359.37 337.5 a3.13 3.13 0 1 0 6.26 0 a3.13 3.13 0 1 0 -6.26 0zM334.37 312.5 a3.13 3.13 0 1 0 6.26 0 a3.13 3.13 0 1 0 -6.26 0zM309.37 487.5 a3.13 3.13 0 1 0 6.26 0 a3.13 3.13 0 1 0 -6.26 0zM309.37 287.5 a3.13 3.13 0 1 0 6.26 0 a3.13 3.13 0 1 0 -6.26 0z" fill="black"></path>
        </mask>
    </defs>
</svg>